<svg width="134" height="117" viewBox="0 0 134 117" fill="none" xmlns="http://www.w3.org/2000/svg">
<g clip-path="url(#clip0_1001_53)">
<path d="M91.3984 58.5001C91.3984 60.346 92.1376 62.1164 93.4532 63.4217C94.7689 64.727 96.5534 65.4604 98.414 65.4604C98.5474 65.4604 98.6791 65.447 98.8108 65.4403L106.659 80.046C105.707 81.2975 105.209 82.8314 105.246 84.3988C105.283 85.9662 105.853 87.4752 106.863 88.681C107.873 89.8869 109.264 90.7187 110.811 91.0417C112.357 91.3647 113.968 91.1598 115.382 90.4603C116.797 89.7609 117.931 88.6078 118.602 87.1882C119.273 85.7687 119.441 84.1659 119.078 82.6399C118.716 81.1138 117.844 79.7541 116.605 78.7812C115.366 77.8084 113.831 77.2795 112.251 77.2803C112.118 77.2803 111.986 77.292 111.854 77.3004L104.005 62.6947C104.676 61.8146 105.127 60.7887 105.32 59.7016C105.513 58.6145 105.442 57.4975 105.114 56.4428C104.786 55.3881 104.209 54.426 103.432 53.6361C102.655 52.8461 101.7 52.2509 100.645 51.8997C99.5903 51.5485 98.4665 51.4514 97.3664 51.6163C96.2663 51.7812 95.2215 52.2035 94.3184 52.8482C93.4153 53.4929 92.6798 54.3415 92.1727 55.324C91.6655 56.3065 91.4013 57.3946 91.4018 58.4984L91.3984 58.5001Z" fill="white"/>
<path d="M82.7886 24.5479C81.5296 24.5468 80.2936 24.8819 79.21 25.5178C78.1264 26.1538 77.2353 27.0673 76.6299 28.1625C76.0246 29.2577 75.7274 30.4943 75.7696 31.7427C75.8117 32.991 76.1915 34.2051 76.8693 35.2578C77.547 36.3104 78.4977 37.1627 79.6217 37.7254C80.7457 38.288 82.0016 38.5404 83.2577 38.4558C84.5138 38.3713 85.7239 37.9531 86.761 37.245C87.7981 36.5369 88.6241 35.5651 89.1524 34.4313H105.853C106.513 35.8449 107.633 36.9977 109.032 37.7048C110.431 38.412 112.03 38.6325 113.57 38.331C115.111 38.0295 116.505 37.2236 117.529 36.0423C118.553 34.8611 119.148 33.3729 119.217 31.8165C119.287 30.26 118.828 28.7253 117.914 27.4585C117 26.1916 115.684 25.266 114.176 24.8299C112.668 24.3938 111.057 24.4726 109.6 25.0535C108.143 25.6345 106.924 26.684 106.14 28.0339C106.034 28.2181 105.939 28.4074 105.851 28.5967H89.1524C88.5927 27.3889 87.6958 26.3656 86.5679 25.648C85.44 24.9305 84.1285 24.5486 82.7886 24.5479Z" fill="white"/>
<path d="M89.8059 85.4886C89.8075 84.4039 89.5536 83.3339 89.0645 82.3638C88.5754 81.3937 87.8646 80.5505 86.9887 79.9012C86.1129 79.252 85.0963 78.8148 84.02 78.6245C82.9436 78.4342 81.8374 78.496 80.7894 78.805C79.7414 79.114 78.7807 79.6617 77.9839 80.4044C77.1871 81.1471 76.5762 82.0642 76.2 83.0826C75.8238 84.1011 75.6926 85.1926 75.8169 86.2703C75.9413 87.3479 76.3177 88.3818 76.9162 89.2895L68.1631 103.138C66.5948 102.942 65.0055 103.277 63.6534 104.089C62.3013 104.902 61.2657 106.144 60.715 107.614C60.1642 109.084 60.1306 110.696 60.6195 112.188C61.1085 113.679 62.0913 114.963 63.4083 115.83C64.7254 116.698 66.2993 117.098 67.8745 116.966C69.4498 116.834 70.9338 116.177 72.0855 115.103C73.2373 114.029 73.9891 112.6 74.219 111.048C74.4489 109.496 74.1433 107.913 73.3518 106.555C73.2877 106.447 73.2133 106.346 73.1458 106.24L81.9005 92.3869C82.8896 92.5193 83.8958 92.4394 84.8512 92.1528C85.8065 91.8662 86.6887 91.3795 87.4381 90.7255C88.1875 90.0715 88.7867 89.2656 89.1952 88.3621C89.6037 87.4587 89.812 86.4788 89.8059 85.4886Z" fill="white"/>
<path d="M51.3582 92.4505C52.6167 92.4511 53.8521 92.1158 54.935 91.4798C56.0179 90.8437 56.9085 89.9305 57.5134 88.8356C58.1182 87.7407 58.4151 86.5046 58.3729 85.2568C58.3307 84.0089 57.951 82.7954 57.2735 81.7432C56.596 80.691 55.6457 79.839 54.5223 79.2764C53.3988 78.7139 52.1435 78.4615 50.8879 78.5458C49.6323 78.63 48.4227 79.0478 47.3858 79.7553C46.3489 80.4628 45.5229 81.434 44.9944 82.5671H28.6365C27.9761 81.1536 26.8565 80.001 25.4572 79.2941C24.0578 78.5872 22.4598 78.3668 20.9192 78.6684C19.3785 78.9699 17.9846 79.7759 16.9607 80.9572C15.9369 82.1384 15.3424 83.6265 15.2726 85.1829C15.2027 86.7393 15.6616 88.2739 16.5757 89.5407C17.4897 90.8075 18.806 91.7331 20.3136 92.1693C21.8211 92.6054 23.4326 92.5268 24.8897 91.946C26.3468 91.3652 27.5652 90.3159 28.3495 88.9662C28.4576 88.7802 28.5504 88.5926 28.6399 88.4033H44.9944C45.5542 89.6109 46.4512 90.634 47.5791 91.3513C48.707 92.0686 50.0185 92.4501 51.3582 92.4505Z" fill="white"/>
<path d="M59.9998 74.0926C59.9993 75.3511 60.3346 76.5865 60.9706 77.6694C61.6066 78.7523 62.5199 79.6429 63.6147 80.2478C64.7096 80.8526 65.9457 81.1495 67.1935 81.1073C68.4414 81.0651 69.655 80.6853 70.7071 80.0078C71.7593 79.3304 72.6113 78.3801 73.1739 77.2566C73.7364 76.1332 73.9888 74.8778 73.9045 73.6223C73.8203 72.3667 73.4025 71.1571 72.695 70.1202C71.9875 69.0833 71.0163 68.2573 69.8833 67.7288L69.8833 51.3709C71.2967 50.7105 72.4493 49.5909 73.1562 48.1916C73.8631 46.7922 74.0835 45.1941 73.7819 43.6535C73.4804 42.1129 72.6744 40.719 71.4931 39.6951C70.3119 38.6712 68.8238 38.0767 67.2674 38.0069C65.711 37.9371 64.1764 38.396 62.9096 39.3101C61.6428 40.2241 60.7172 41.5404 60.281 43.0479C59.8449 44.5555 59.9235 46.1669 60.5043 47.6241C61.0851 49.0812 62.1345 50.2995 63.4841 51.0839C63.6701 51.1919 63.8577 51.2848 64.047 51.3743L64.047 67.7288C62.8394 68.2885 61.8163 69.1855 61.099 70.3134C60.3817 71.4413 60.0002 72.7529 59.9998 74.0926Z" fill="#194fdc"/>
<path d="M44.3408 31.9654C44.3395 33.0495 44.5934 34.1189 45.0823 35.0884C45.5712 36.058 46.2815 36.9008 47.1567 37.5499C48.0319 38.199 49.0477 38.6363 50.1234 38.827C51.199 39.0178 52.3047 38.9567 53.3523 38.6486C54.3999 38.3405 55.3606 37.7939 56.1577 37.0525C56.9548 36.311 57.5664 35.3951 57.9437 34.3777C58.321 33.3603 58.4537 32.2695 58.331 31.1923C58.2084 30.1151 57.8339 29.0811 57.2373 28.1729L66.3145 13.8569C67.8831 14.0562 69.4734 13.7233 70.8272 12.9125C72.181 12.1016 73.2185 10.8603 73.7713 9.39042C74.3241 7.92051 74.3596 6.30832 73.8721 4.81585C73.3846 3.32338 72.4027 2.03834 71.0859 1.16955C69.7692 0.300762 68.1949 -0.100715 66.6191 0.0303618C65.0433 0.161439 63.5585 0.817369 62.4059 1.89156C61.2533 2.96574 60.5008 4.39505 60.2705 5.94723C60.0403 7.4994 60.3459 9.08321 61.1377 10.4413C61.1985 10.5485 61.2711 10.6473 61.3369 10.7478L52.2563 25.0688C51.9586 25.029 51.6586 25.0077 51.3581 25.0051C49.4973 25.0051 47.7127 25.7384 46.3967 27.0437C45.0808 28.3489 44.3413 30.1193 44.3408 31.9654Z" fill="white"/>
<path d="M42.6016 58.5C42.6016 56.6555 41.8636 54.8864 40.5498 53.5813C39.236 52.2762 37.4537 51.5419 35.5945 51.5397C35.4966 51.5397 35.4003 51.5514 35.3007 51.5548L27.7752 37.0361C28.749 35.796 29.2705 34.265 29.2546 32.693C29.2387 31.121 28.6863 29.6007 27.6876 28.3802C26.6889 27.1597 25.3029 26.3109 23.7555 25.9724C22.2081 25.6338 20.5907 25.8255 19.1672 26.5161C17.7437 27.2067 16.5981 28.3554 15.9173 29.775C15.2364 31.1946 15.0605 32.8011 15.4183 34.3326C15.776 35.8641 16.6462 37.2302 17.8871 38.2079C19.1279 39.1857 20.666 39.7174 22.2506 39.7164C22.3485 39.7164 22.4447 39.7047 22.5427 39.7013L30.0699 54.2183C29.3828 55.0918 28.9159 56.1154 28.7081 57.2041C28.5003 58.2927 28.5576 59.4148 28.8753 60.477C29.1929 61.5393 29.7617 62.5109 30.5342 63.311C31.3068 64.1111 32.2607 64.7166 33.3168 65.077C34.3728 65.4374 35.5004 65.5424 36.6056 65.3832C37.7108 65.2239 38.7616 64.8051 39.6707 64.1616C40.5798 63.518 41.3208 62.6684 41.8321 61.6833C42.3434 60.6983 42.6101 59.6063 42.6101 58.4983L42.6016 58.5Z" fill="white"/>
<path d="M119.969 58.5C119.969 59.8766 120.38 61.2223 121.151 62.3669C121.922 63.5115 123.018 64.4036 124.3 64.9304C125.582 65.4573 126.992 65.5951 128.353 65.3265C129.714 65.0579 130.964 64.395 131.945 63.4216C132.926 62.4482 133.594 61.208 133.865 59.8579C134.136 58.5077 133.997 57.1082 133.466 55.8364C132.935 54.5645 132.036 53.4775 130.882 52.7127C129.728 51.9479 128.372 51.5397 126.984 51.5397C125.124 51.5397 123.339 52.273 122.024 53.5783C120.708 54.8836 119.969 56.654 119.969 58.5Z" fill="white"/>
<path d="M90.2217 6.96027C90.2213 8.33696 90.6325 9.68282 91.4032 10.8277C92.1739 11.9725 93.2694 12.8649 94.5513 13.3919C95.8332 13.919 97.2439 14.0571 98.6049 13.7887C99.9659 13.5203 101.216 12.8576 102.197 11.8842C103.179 10.9109 103.847 9.67066 104.118 8.32045C104.389 6.97023 104.25 5.57066 103.719 4.29874C103.188 3.02681 102.289 1.93966 101.135 1.17478C99.9813 0.409902 98.6249 0.00164819 97.2373 0.00164815C96.316 0.00142813 95.4038 0.181257 94.5526 0.530862C93.7015 0.880467 92.9281 1.393 92.2766 2.03919C91.6251 2.68538 91.1083 3.45257 90.7558 4.29694C90.4032 5.14131 90.2217 6.04631 90.2217 6.96027Z" fill="white"/>
<path d="M90.2217 110.038C90.2217 111.415 90.6331 112.76 91.404 113.905C92.1749 115.05 93.2706 115.942 94.5525 116.469C95.8344 116.995 97.245 117.133 98.6059 116.865C99.9668 116.596 101.217 115.933 102.198 114.96C103.179 113.986 103.847 112.746 104.118 111.396C104.389 110.046 104.25 108.646 103.719 107.374C103.188 106.103 102.289 105.016 101.135 104.251C99.9812 103.486 98.6248 103.078 97.2373 103.078C95.3766 103.078 93.5922 103.811 92.2765 105.116C90.9608 106.422 90.2217 108.192 90.2217 110.038Z" fill="white"/>
<path d="M44.3407 110.038C44.3407 108.661 43.9293 107.316 43.1584 106.171C42.3875 105.027 41.2918 104.134 40.0099 103.608C38.728 103.081 37.3174 102.943 35.9565 103.211C34.5956 103.48 33.3455 104.143 32.3644 105.116C31.3832 106.09 30.7151 107.33 30.4444 108.68C30.1737 110.03 30.3126 111.43 30.8436 112.702C31.3746 113.973 32.2738 115.061 33.4275 115.825C34.5812 116.59 35.9376 116.998 37.3252 116.998C39.1858 116.998 40.9703 116.265 42.2859 114.96C43.6016 113.654 44.3407 111.884 44.3407 110.038Z" fill="white"/>
<path d="M44.3407 6.96197C44.3411 5.58528 43.9299 4.23942 43.1592 3.09458C42.3886 1.94974 41.293 1.05737 40.0111 0.530306C38.7292 0.00324065 37.3185 -0.134837 35.9575 0.133539C34.5965 0.401914 33.3463 1.06469 32.365 2.03803C31.3837 3.01138 30.7153 4.25158 30.4445 5.60179C30.1737 6.952 30.3125 8.35157 30.8434 9.6235C31.3744 10.8954 32.2736 11.9826 33.4273 12.7475C34.5811 13.5123 35.9375 13.9206 37.3252 13.9206C39.1855 13.9206 40.9697 13.1875 42.2853 11.8826C43.6009 10.5776 44.3403 8.80767 44.3407 6.96197Z" fill="white"/>
<path d="M14.0312 58.5C14.0312 57.1234 13.6197 55.7777 12.8488 54.633C12.078 53.4884 10.9822 52.5963 9.70032 52.0695C8.41839 51.5427 7.00782 51.4049 5.64693 51.6734C4.28604 51.942 3.03596 52.6049 2.05481 53.5783C1.07367 54.5517 0.4055 55.7919 0.134803 57.1421C-0.135895 58.4923 0.00304828 59.8917 0.534041 61.1636C1.06503 62.4354 1.96423 63.5224 3.11794 64.2873C4.27164 65.0521 5.62804 65.4603 7.01559 65.4603C7.93689 65.4603 8.84915 65.2802 9.70032 64.9305C10.5515 64.5807 11.3249 64.068 11.9764 63.4216C12.6278 62.7753 13.1446 62.008 13.4971 61.1636C13.8497 60.3191 14.0312 59.414 14.0312 58.5Z" fill="white"/>
</g>
<defs>
<clipPath id="clip0_1001_53">
<rect width="134" height="117" fill="white"/>
</clipPath>
</defs>
</svg>
