<svg width="143" height="125" viewBox="0 0 143 125" fill="none" xmlns="http://www.w3.org/2000/svg">
<g clip-path="url(#clip0_1125_11)">
<path d="M97.3047 62.4999C97.3047 64.4721 98.0916 66.3635 99.4923 67.7581C100.893 69.1526 102.793 69.9361 104.774 69.9361C104.916 69.9361 105.056 69.9218 105.196 69.9146L113.551 85.5191C112.538 86.8561 112.008 88.4949 112.047 90.1695C112.087 91.8441 112.693 93.4563 113.769 94.7445C114.844 96.0328 116.325 96.9215 117.971 97.2666C119.618 97.6116 121.333 97.3928 122.839 96.6455C124.344 95.8982 125.552 94.6663 126.267 93.1497C126.981 91.633 127.159 89.9207 126.773 88.2903C126.387 86.6599 125.459 85.2072 124.14 84.1678C122.821 83.1284 121.187 82.5634 119.505 82.5643C119.363 82.5643 119.223 82.5768 119.082 82.5857L110.725 66.9813C111.44 66.0411 111.921 64.945 112.126 63.7836C112.331 62.6222 112.256 61.4287 111.907 60.3019C111.557 59.1751 110.944 58.1473 110.116 57.3033C109.289 56.4593 108.272 55.8235 107.149 55.4483C106.026 55.073 104.829 54.9692 103.658 55.1454C102.487 55.3216 101.375 55.7728 100.413 56.4615C99.4519 57.1503 98.6689 58.057 98.129 59.1067C97.589 60.1563 97.3077 61.3188 97.3083 62.4981L97.3047 62.4999Z" fill="#222021"/>
<path d="M88.139 26.2261C86.7986 26.225 85.4827 26.5829 84.3291 27.2624C83.1755 27.9418 82.2267 28.9178 81.5823 30.0879C80.9379 31.258 80.6215 32.5791 80.6663 33.9128C80.7111 35.2466 81.1155 36.5437 81.8371 37.6683C82.5587 38.7929 83.5708 39.7035 84.7674 40.3046C85.9641 40.9058 87.3011 41.1753 88.6384 41.085C89.9757 40.9947 91.2639 40.5479 92.3681 39.7914C93.4722 39.0349 94.3516 37.9966 94.9141 36.7853H112.694C113.397 38.2956 114.589 39.5272 116.079 40.2827C117.568 41.0381 119.27 41.2737 120.91 40.9517C122.55 40.6296 124.034 39.7685 125.125 38.5065C126.215 37.2445 126.848 35.6546 126.922 33.9917C126.997 32.3288 126.508 30.6892 125.535 29.3357C124.561 27.9822 123.16 26.9933 121.555 26.5274C119.95 26.0615 118.234 26.1456 116.683 26.7663C115.132 27.387 113.835 28.5083 113 29.9504C112.886 30.1473 112.786 30.3495 112.692 30.5518H94.9141C94.3182 29.2614 93.3633 28.1682 92.1625 27.4015C90.9617 26.6348 89.5654 26.2269 88.139 26.2261V26.2261Z" fill="#222021"/>
<path d="M95.6104 91.3341C95.6121 90.1752 95.3418 89.032 94.8211 87.9956C94.3003 86.9592 93.5436 86.0583 92.6112 85.3647C91.6787 84.6711 90.5964 84.204 89.4505 84.0007C88.3046 83.7973 87.1269 83.8634 86.0112 84.1935C84.8955 84.5237 83.8727 85.1088 83.0243 85.9023C82.176 86.6958 81.5257 87.6756 81.1252 88.7636C80.7246 89.8517 80.5849 91.0179 80.7173 92.1692C80.8497 93.3205 81.2504 94.4251 81.8876 95.3949L72.5689 110.19C70.8992 109.98 69.2072 110.339 67.7677 111.207C66.3282 112.075 65.2257 113.402 64.6394 114.973C64.053 116.543 64.0172 118.265 64.5378 119.859C65.0583 121.452 66.1046 122.824 67.5068 123.75C68.9089 124.677 70.5846 125.105 72.2616 124.964C73.9387 124.823 75.5186 124.121 76.7448 122.973C77.971 121.826 78.7714 120.299 79.0162 118.641C79.2609 116.983 78.9355 115.292 78.0929 113.841C78.0246 113.725 77.9455 113.618 77.8736 113.505L87.1941 98.7041C88.2471 98.8455 89.3184 98.7602 90.3354 98.454C91.3525 98.1478 92.2917 97.6278 93.0896 96.9291C93.8874 96.2304 94.5253 95.3694 94.9602 94.4041C95.3951 93.4389 95.6168 92.392 95.6104 91.3341Z" fill="#222021"/>
<path d="M54.6772 98.7719C56.017 98.7724 57.3322 98.4142 58.4851 97.7347C59.638 97.0552 60.5862 96.0795 61.2301 94.9098C61.8741 93.74 62.1901 92.4194 62.1452 91.0862C62.1003 89.7531 61.696 88.4565 60.9747 87.3324C60.2534 86.2083 59.2418 85.298 58.0457 84.697C56.8496 84.096 55.5132 83.8264 54.1764 83.9164C52.8397 84.0064 51.5519 84.4527 50.448 85.2086C49.3441 85.9644 48.4647 87.002 47.902 88.2126H30.487C29.7839 86.7025 28.592 85.4711 27.1022 84.7159C25.6124 83.9606 23.911 83.7252 22.2709 84.0474C20.6307 84.3695 19.1467 85.2306 18.0566 86.4926C16.9666 87.7547 16.3337 89.3445 16.2593 91.0073C16.185 92.6701 16.6735 94.3097 17.6467 95.6631C18.6198 97.0165 20.0212 98.0054 21.6261 98.4714C23.2311 98.9374 24.9467 98.8533 26.498 98.2328C28.0493 97.6123 29.3464 96.4912 30.1814 95.0493C30.2965 94.8506 30.3953 94.6502 30.4906 94.4479H47.902C48.498 95.7381 49.453 96.8311 50.6538 97.5975C51.8546 98.3638 53.2509 98.7714 54.6772 98.7719V98.7719Z" fill="#222021"/>
<path d="M63.877 79.1586C63.8764 80.5031 64.2334 81.823 64.9105 82.98C65.5876 84.1369 66.5599 85.0884 67.7255 85.7346C68.8912 86.3808 70.2072 86.698 71.5357 86.6529C72.8641 86.6078 74.1562 86.2021 75.2763 85.4783C76.3965 84.7545 77.3036 83.7393 77.9025 82.539C78.5014 81.3387 78.7701 79.9975 78.6804 78.6561C78.5907 77.3147 78.1459 76.0224 77.3927 74.9146C76.6395 73.8068 75.6055 72.9243 74.3992 72.3596L74.3992 54.8833C75.904 54.1778 77.1311 52.9816 77.8837 51.4866C78.6363 49.9915 78.8709 48.2842 78.5498 46.6382C78.2288 44.9923 77.3707 43.503 76.1131 42.4092C74.8555 41.3153 73.2713 40.6801 71.6143 40.6056C69.9573 40.531 68.3235 41.0212 66.9749 41.9978C65.6262 42.9743 64.6407 44.3806 64.1764 45.9912C63.7121 47.6018 63.7958 49.3235 64.4141 50.8803C65.0325 52.437 66.1496 53.7387 67.5865 54.5767C67.7845 54.6921 67.9842 54.7913 68.1857 54.8869L68.1857 72.3596C66.9001 72.9577 65.8109 73.916 65.0473 75.121C64.2836 76.3261 63.8775 77.7273 63.877 79.1586V79.1586Z" fill="#4C6FE7"/>
<path d="M47.207 34.151C47.2057 35.3092 47.476 36.4517 47.9964 37.4875C48.5169 38.5233 49.2731 39.4238 50.2049 40.1173C51.1366 40.8107 52.2181 41.278 53.3633 41.4818C54.5085 41.6855 55.6856 41.6203 56.8009 41.2911C57.9163 40.962 58.939 40.378 59.7876 39.5859C60.6363 38.7937 61.2874 37.8151 61.6891 36.7282C62.0908 35.6412 62.232 34.4759 62.1014 33.325C61.9708 32.1741 61.5721 31.0695 60.937 30.0991L70.6008 14.8043C72.2708 15.0172 73.9639 14.6616 75.4052 13.7953C76.8464 12.9289 77.9511 11.6028 78.5396 10.0324C79.1281 8.46197 79.1659 6.73955 78.6469 5.14503C78.1278 3.55051 77.0825 2.17761 75.6806 1.24941C74.2788 0.321219 72.6028 -0.107709 70.9251 0.0323298C69.2475 0.172369 67.6667 0.87315 66.4396 2.02078C65.2126 3.16842 64.4114 4.69546 64.1663 6.35377C63.9211 8.01207 64.2465 9.70417 65.0895 11.1551C65.1542 11.2696 65.2315 11.3752 65.3016 11.4826L55.6341 26.7828C55.3171 26.7402 54.9977 26.7175 54.6778 26.7148C52.6968 26.7148 50.7968 27.4982 49.3958 28.8927C47.9948 30.2872 47.2075 32.1786 47.207 34.151V34.151Z" fill="#222021"/>
<path d="M45.3555 62.4998C45.3555 60.5291 44.5698 58.6391 43.1711 57.2448C41.7723 55.8505 39.8749 55.0659 37.8955 55.0636C37.7913 55.0636 37.6888 55.0761 37.5827 55.0797L29.5709 39.5683C30.6076 38.2434 31.1628 36.6077 31.1459 34.9282C31.1289 33.2487 30.5409 31.6245 29.4776 30.3205C28.4144 29.0165 26.9387 28.1097 25.2913 27.748C23.6439 27.3864 21.922 27.5911 20.4066 28.3289C18.8911 29.0668 17.6714 30.2941 16.9466 31.8107C16.2217 33.3273 16.0345 35.0438 16.4153 36.68C16.7961 38.3162 17.7227 39.7756 19.0437 40.8202C20.3647 41.8648 22.0022 42.4329 23.6892 42.4319C23.7934 42.4319 23.8959 42.4193 24.0001 42.4157L32.0138 57.9253C31.2823 58.8585 30.7853 59.9522 30.5641 61.1152C30.3429 62.2783 30.4039 63.4772 30.742 64.612C31.0802 65.7469 31.6857 66.7849 32.5082 67.6397C33.3307 68.4945 34.3463 69.1414 35.4706 69.5265C36.5949 69.9116 37.7953 70.0237 38.9719 69.8536C40.1485 69.6835 41.2673 69.236 42.2352 68.5485C43.203 67.8609 43.9919 66.9532 44.5362 65.9008C45.0805 64.8484 45.3645 63.6817 45.3645 62.498L45.3555 62.4998Z" fill="#222021"/>
<path d="M127.723 62.5002C127.723 63.9709 128.161 65.4086 128.981 66.6315C129.802 67.8544 130.969 68.8075 132.333 69.3703C133.698 69.9332 135.2 70.0804 136.649 69.7935C138.098 69.5066 139.428 68.7983 140.473 67.7584C141.518 66.7184 142.229 65.3934 142.517 63.9509C142.805 62.5084 142.657 61.0132 142.092 59.6545C141.527 58.2957 140.569 57.1343 139.341 56.3172C138.113 55.5001 136.669 55.064 135.192 55.064C133.211 55.064 131.311 55.8474 129.91 57.242C128.51 58.6365 127.723 60.528 127.723 62.5002Z" fill="#222021"/>
<path d="M96.0527 7.43638C96.0524 8.9072 96.4901 10.3451 97.3106 11.5682C98.1311 12.7913 99.2975 13.7447 100.662 14.3078C102.027 14.8709 103.529 15.0184 104.978 14.7317C106.427 14.445 107.758 13.7369 108.802 12.697C109.847 11.6571 110.559 10.3321 110.847 8.88956C111.135 7.44703 110.988 5.95176 110.422 4.59286C109.857 3.23397 108.9 2.07248 107.671 1.2553C106.443 0.438122 104.999 0.00195338 103.522 0.00195334C102.541 0.00171828 101.57 0.193843 100.664 0.567353C99.7574 0.940862 98.9341 1.48844 98.2405 2.17882C97.5469 2.86919 96.9967 3.68884 96.6213 4.59094C96.246 5.49304 96.0527 6.45992 96.0527 7.43638Z" fill="#222021"/>
<path d="M96.0527 117.562C96.0527 119.033 96.4908 120.471 97.3115 121.694C98.1322 122.916 99.2987 123.87 100.663 124.432C102.028 124.995 103.53 125.142 104.979 124.856C106.428 124.569 107.759 123.86 108.803 122.82C109.848 121.78 110.559 120.455 110.847 119.013C111.135 117.57 110.987 116.075 110.422 114.716C109.857 113.358 108.9 112.196 107.671 111.379C106.443 110.562 104.999 110.126 103.522 110.126C101.541 110.126 99.641 110.909 98.2403 112.304C96.8396 113.699 96.0527 115.59 96.0527 117.562V117.562Z" fill="#222021"/>
<path d="M47.2056 117.562C47.2056 116.091 46.7675 114.654 45.9468 113.431C45.1261 112.208 43.9596 111.255 42.5948 110.692C41.23 110.129 39.7283 109.982 38.2795 110.269C36.8306 110.556 35.4997 111.264 34.4552 112.304C33.4106 113.344 32.6993 114.669 32.4111 116.111C32.1229 117.554 32.2708 119.049 32.8361 120.408C33.4014 121.767 34.3588 122.928 35.587 123.745C36.8153 124.562 38.2593 124.998 39.7366 124.998C41.7175 124.998 43.6172 124.215 45.018 122.82C46.4187 121.426 47.2056 119.534 47.2056 117.562Z" fill="#222021"/>
<path d="M47.2056 7.438C47.2059 5.96718 46.7682 4.52929 45.9477 3.30618C45.1272 2.08306 43.9608 1.12967 42.5961 0.566566C41.2313 0.00346217 39.7295 -0.144056 38.2806 0.14267C36.8316 0.429396 35.5006 1.13748 34.4559 2.17739C33.4111 3.21729 32.6996 4.54229 32.4112 5.98482C32.1229 7.42735 32.2707 8.92262 32.836 10.2815C33.4012 11.6404 34.3585 12.8019 35.5868 13.6191C36.8152 14.4363 38.2593 14.8724 39.7366 14.8724C41.7172 14.8724 43.6166 14.0892 45.0173 12.695C46.418 11.3009 47.2051 9.4099 47.2056 7.438V7.438Z" fill="#222021"/>
<path d="M14.938 62.5002C14.938 61.0294 14.4999 59.5917 13.6792 58.3688C12.8585 57.146 11.692 56.1928 10.3272 55.63C8.96246 55.0672 7.46072 54.9199 6.01188 55.2069C4.56304 55.4938 3.23217 56.202 2.18761 57.242C1.14306 58.282 0.431707 59.607 0.143515 61.0495C-0.144678 62.4919 0.00324528 63.9871 0.568555 65.3459C1.13386 66.7047 2.09118 67.8661 3.31945 68.6832C4.54771 69.5003 5.99177 69.9364 7.469 69.9364C8.44984 69.9364 9.42106 69.7441 10.3272 69.3704C11.2334 68.9967 12.0568 68.4489 12.7504 67.7584C13.4439 67.0679 13.9941 66.2481 14.3694 65.3459C14.7448 64.4437 14.938 63.4767 14.938 62.5002Z" fill="#222021"/>
</g>
<defs>
<clipPath id="clip0_1125_11">
<rect width="142.66" height="125" fill="white"/>
</clipPath>
</defs>
</svg>
